<svg width="27" height="30" viewBox="0 0 27 30" fill="none" xmlns="http://www.w3.org/2000/svg">
<path d="M26.5617 10.02C26.5433 9.972 26.5283 9.9255 26.5067 9.879C26.4276 9.7162 26.317 9.56738 26.18 9.4395L16.18 0.4395C16.0379 0.316173 15.8726 0.216617 15.6917 0.1455C15.6417 0.1245 15.5883 0.1125 15.535 0.0959998C15.3955 0.0532892 15.2504 0.0275612 15.1033 0.0195C15.0667 0.0165 15.035 0 15 0H3.33333C1.495 0 0 1.3455 0 3V27C0 28.6545 1.495 30 3.33333 30H23.3333C25.1717 30 26.6667 28.6545 26.6667 27V10.5C26.6667 10.4685 26.6483 10.44 26.645 10.407C26.6364 10.2752 26.6084 10.1451 26.5617 10.02ZM20.9767 9H16.6667V5.121L20.9767 9ZM3.33333 27V3H13.3333V10.5C13.3333 10.8978 13.5089 11.2794 13.8215 11.5607C14.134 11.842 14.558 12 15 12H23.3333L23.3367 27H3.33333Z" fill="black"/>
</svg>
